<svg xmlns="http://www.w3.org/2000/svg" viewBox="0 0 32 32" width="32" height="32">
  <rect width="32" height="32" rx="6" fill="#4F46E5"/>
  <!-- Stars in background -->
  <circle cx="5" cy="5" r="0.8" fill="#C7D2FE"/>
  <circle cx="27" cy="7" r="0.8" fill="#C7D2FE"/>
  <circle cx="9" cy="10" r="0.6" fill="#C7D2FE"/>
  <circle cx="25" cy="14" r="0.6" fill="#C7D2FE"/>
  <!-- Rocket body -->
  <path d="M16 5 C16 5 11 12 11 18 L16 20 L21 18 C21 12 16 5 16 5Z" fill="#E0E7FF"/>
  <!-- Rocket nose -->
  <path d="M16 5 C14 8 13 11 13 14 L16 15 L19 14 C19 11 18 8 16 5Z" fill="#A5B4FC"/>
  <!-- Rocket fins -->
  <path d="M11 18 L8 22 L13 19" fill="#818CF8"/>
  <path d="M21 18 L24 22 L19 19" fill="#818CF8"/>
  <!-- Exhaust flame -->
  <path d="M13 20 Q16 28 19 20" fill="#FCD34D"/>
  <path d="M14 20 Q16 26 18 20" fill="#F97316"/>
  <!-- Lightning bolt -->
  <polygon points="15,11 13,16 16,16 14,21 18,14 15,14" fill="#FCD34D"/>
</svg>
